<svg xmlns="http://www.w3.org/2000/svg" viewBox="0 0 820.219 1010" id="shopping"><path fill="#FF9554" d="M205.106 374.428V233.395l120.292 49.755v41.483z"></path><path fill="#4D4D4D" d="M205.106 384.708a10.28 10.28 0 0 1-5.712-1.727 10.298 10.298 0 0 1-4.568-8.553V233.395c0-3.433 1.717-6.646 4.568-8.553a10.349 10.349 0 0 1 9.638-.944l120.292 49.755a10.28 10.28 0 0 1 6.354 9.497v41.483c0 4.156-2.51 7.91-6.345 9.497l-120.291 49.795c-1.265.522-2.6.783-3.936.783zm10.28-135.933v110.273l99.732-41.282v-27.749l-99.731-41.242z"></path><path fill="#FF9554" d="M487.192 374.428V233.395L366.921 283.15v41.483z"></path><path fill="#4D4D4D" d="M487.192 384.708c-1.335 0-2.67-.26-3.934-.783L362.986 334.13a10.284 10.284 0 0 1-6.345-9.497V283.15a10.28 10.28 0 0 1 6.354-9.497l120.272-49.755a10.343 10.343 0 0 1 9.638.944 10.296 10.296 0 0 1 4.568 8.553v141.033c0 3.433-1.716 6.646-4.568 8.553a10.281 10.281 0 0 1-5.713 1.727zm-109.991-66.942 99.71 41.282V248.775l-99.71 41.242v27.749z"></path><path fill="#FF9554" d="M308.773 264.397h72.163v75.456h-72.163z"></path><path fill="#4D4D4D" d="M380.936 350.133h-72.163a10.274 10.274 0 0 1-10.28-10.28v-75.457c0-5.682 4.598-10.28 10.28-10.28h72.163c5.682 0 10.28 4.598 10.28 10.28v75.456c0 5.683-4.598 10.28-10.28 10.28zm-61.883-20.56h51.603v-54.896h-51.603v54.895z"></path><path fill="#5FD4AF" d="M114.511 309.333h422.156v206.128H114.51z"></path><path fill="#4D4D4D" d="M536.667 525.741H114.51a10.274 10.274 0 0 1-10.28-10.28V309.333c0-5.683 4.598-10.28 10.28-10.28h422.156c5.681 0 10.28 4.597 10.28 10.28v206.128c0 5.683-4.599 10.28-10.28 10.28zm-411.876-20.56h401.595V319.613H124.791v185.568z"></path><path fill="#FF9554" d="M317.125 309.333h58.028v206.128h-58.028z"></path><path fill="#4D4D4D" d="M375.153 525.741h-58.028a10.274 10.274 0 0 1-10.28-10.28V309.333c0-5.683 4.598-10.28 10.28-10.28h58.028c5.682 0 10.28 4.597 10.28 10.28v206.128c0 5.683-4.598 10.28-10.28 10.28zm-47.747-20.56h37.467V319.613h-37.467v185.568z"></path><path fill="#F9F9F9" d="M10.283 489.76 122.18 881.457h531.565V489.761z"></path><path fill="#FFF" d="M306.644 950.446c0 27.227-22.046 49.274-49.253 49.274-27.206 0-49.253-22.047-49.253-49.274 0-27.186 22.047-49.232 49.253-49.232 27.207 0 49.253 22.046 49.253 49.232z"></path><path fill="#4D4D4D" d="M257.391 1010c-32.828 0-59.533-26.725-59.533-59.554 0-32.808 26.705-59.512 59.533-59.512s59.534 26.704 59.534 59.512c0 32.83-26.705 59.554-59.534 59.554zm0-98.506c-21.494 0-38.973 17.468-38.973 38.952 0 21.505 17.479 38.993 38.973 38.993 21.495 0 38.973-17.488 38.973-38.993 0-21.484-17.478-38.952-38.973-38.952z"></path><path fill="#4D4D4D" d="M282.309 950.446c0 13.775-11.124 24.938-24.918 24.938-13.754 0-24.917-11.163-24.917-24.938 0-13.773 11.163-24.937 24.917-24.937 13.794 0 24.918 11.164 24.918 24.937z"></path><path fill="#FFF" d="M586.401 950.446c0 27.227-22.046 49.274-49.253 49.274-27.186 0-49.232-22.047-49.232-49.274 0-27.186 22.046-49.232 49.232-49.232 27.207 0 49.253 22.046 49.253 49.232z"></path><path fill="#4D4D4D" d="M537.148 1010c-32.818 0-59.512-26.725-59.512-59.554 0-32.808 26.694-59.512 59.512-59.512 32.83 0 59.533 26.704 59.533 59.512 0 32.83-26.704 59.554-59.533 59.554zm0-98.506c-21.473 0-38.952 17.468-38.952 38.952 0 21.505 17.479 38.993 38.952 38.993 21.494 0 38.973-17.488 38.973-38.993 0-21.484-17.479-38.952-38.973-38.952z"></path><path fill="#4D4D4D" d="M562.087 950.446c0 13.775-11.145 24.938-24.939 24.938-13.733 0-24.897-11.163-24.897-24.938 0-13.773 11.164-24.937 24.897-24.937 13.794 0 24.939 11.164 24.939 24.937z"></path><path fill="#CCC" d="M809.938 352.22H681.716v2.732l-1.185-.764-100.836 152.56 60.036 1.726 68.247-109.63h101.96z"></path><path fill="#4D4D4D" d="M639.731 518.754h-.29l-60.037-1.727a10.322 10.322 0 0 1-8.835-5.542 10.272 10.272 0 0 1 .553-10.4l100.835-152.559c.13-.2.262-.401.412-.582 1.616-3.534 5.2-6.004 9.347-6.004h128.222c5.683 0 10.28 4.599 10.28 10.28v46.624c0 5.682-4.597 10.28-10.28 10.28h-96.247l-65.236 104.791a10.282 10.282 0 0 1-8.724 4.839zm-41.272-21.745 35.67 1.023 65.126-104.63a10.27 10.27 0 0 1 8.723-4.839h91.68v-26.062H688.693a10.983 10.983 0 0 1-2.058 1.486c-.12.06-.251.12-.381.181l-87.795 132.84z"></path><path fill="#CCC" d="M10.283 489.76 122.18 881.457h531.565V489.761H10.283zm600.836 113.124h-92.603v-75.818h92.603v75.818zM95.858 644.849h105.574v81.6H119.19l-23.332-81.6zm285.098 0h95.575v81.6h-95.575v-81.6zm-137.56-41.965v-75.818h95.575v75.818h-95.575zm95.575 41.965v81.6h-95.575v-81.6h95.575zm0 123.564v75.736h-95.575v-75.736h95.575zm41.985 0h95.575v75.736h-95.575v-75.736zm0-165.53v-75.817h95.575v75.818h-95.575zm137.56 41.966h92.603v81.6h-92.604v-81.6zM201.431 527.066v75.818H83.891l-21.665-75.818h139.206zm-70.235 241.347h70.235v75.736h-48.63l-21.605-75.736zm387.318 75.736v-75.736h92.604v75.736h-92.604z"></path><path fill="#4D4D4D" d="M653.746 891.736H122.18a10.303 10.303 0 0 1-9.889-7.449L.394 492.592a10.296 10.296 0 0 1 1.676-9.016 10.265 10.265 0 0 1 8.213-4.097h643.463c5.683 0 10.28 4.6 10.28 10.282v391.695c0 5.683-4.597 10.28-10.28 10.28zm-523.814-20.56h513.534V500.04H23.916l106.016 371.135zm481.187-16.746h-92.603a10.274 10.274 0 0 1-10.28-10.28v-75.737c0-5.683 4.597-10.28 10.28-10.28h92.603c5.682 0 10.28 4.597 10.28 10.28v75.736c0 5.683-4.598 10.28-10.28 10.28zm-82.323-20.56h72.043v-55.177h-72.043v55.176zm-52.265 20.56h-95.575a10.274 10.274 0 0 1-10.28-10.28v-75.737c0-5.683 4.598-10.28 10.28-10.28h95.575c5.682 0 10.28 4.597 10.28 10.28v75.736c0 5.683-4.598 10.28-10.28 10.28zm-85.295-20.56h75.015v-55.177h-75.015v55.176zm-52.265 20.56h-95.575a10.274 10.274 0 0 1-10.28-10.28v-75.737c0-5.683 4.598-10.28 10.28-10.28h95.575c5.683 0 10.28 4.597 10.28 10.28v75.736c0 5.683-4.597 10.28-10.28 10.28zm-85.294-20.56h75.014v-55.177h-75.014v55.176zm-52.245 20.56h-48.63a10.298 10.298 0 0 1-9.89-7.47l-21.604-75.736a10.237 10.237 0 0 1 1.686-8.996 10.232 10.232 0 0 1 8.203-4.095h70.235c5.682 0 10.28 4.598 10.28 10.28v75.736c0 5.683-4.598 10.28-10.28 10.28zm-40.87-20.56h30.59v-55.177H144.82l15.742 55.176zm450.557-97.141h-92.603a10.274 10.274 0 0 1-10.28-10.28v-81.6c0-5.683 4.597-10.28 10.28-10.28h92.603c5.682 0 10.28 4.597 10.28 10.28v81.6c0 5.682-4.598 10.28-10.28 10.28zm-82.323-20.561h72.043v-61.04h-72.043v61.04zm-52.265 20.56h-95.575a10.274 10.274 0 0 1-10.28-10.28v-81.6c0-5.682 4.598-10.28 10.28-10.28h95.575c5.682 0 10.28 4.598 10.28 10.28v81.6c0 5.683-4.598 10.28-10.28 10.28zm-85.295-20.56h75.015v-61.04h-75.015v61.04zm-52.265 20.56h-95.575a10.274 10.274 0 0 1-10.28-10.28v-81.6c0-5.682 4.598-10.28 10.28-10.28h95.575c5.683 0 10.28 4.598 10.28 10.28v81.6c0 5.683-4.597 10.28-10.28 10.28zm-85.294-20.56h75.014v-61.04h-75.014v61.04zm-52.245 20.56H119.19a10.28 10.28 0 0 1-9.89-7.449l-23.33-81.6a10.297 10.297 0 0 1 1.676-9.015 10.266 10.266 0 0 1 8.212-4.096h105.574c5.682 0 10.28 4.598 10.28 10.28v81.6c0 5.683-4.598 10.28-10.28 10.28zm-74.492-20.56h64.212v-61.04h-81.66l17.448 61.04zm484.179-103.004h-92.603a10.274 10.274 0 0 1-10.28-10.28v-75.818c0-5.682 4.597-10.28 10.28-10.28h92.603c5.682 0 10.28 4.598 10.28 10.28v75.818c0 5.682-4.598 10.28-10.28 10.28zm-82.323-20.56h72.043v-55.257h-72.043v55.257zm-52.265 20.56h-95.575a10.274 10.274 0 0 1-10.28-10.28v-75.818c0-5.682 4.598-10.28 10.28-10.28h95.575c5.682 0 10.28 4.598 10.28 10.28v75.818c0 5.682-4.598 10.28-10.28 10.28zm-85.295-20.56h75.015v-55.257h-75.015v55.257zm-52.265 20.56h-95.575a10.274 10.274 0 0 1-10.28-10.28v-75.818c0-5.682 4.598-10.28 10.28-10.28h95.575c5.683 0 10.28 4.598 10.28 10.28v75.818c0 5.682-4.597 10.28-10.28 10.28zm-85.294-20.56h75.014v-55.257h-75.014v55.257zm-52.245 20.56H83.891a10.303 10.303 0 0 1-9.889-7.45l-21.665-75.817a10.298 10.298 0 0 1 1.677-9.015 10.265 10.265 0 0 1 8.212-4.096h139.206c5.682 0 10.28 4.598 10.28 10.28v75.818c0 5.682-4.598 10.28-10.28 10.28zm-109.79-20.56h99.51v-55.257H75.86l15.781 55.257z"></path><path fill="#FFF" d="M85.015 161.031s-1.445 42.286-45.418 48.27c0 0 40.118 2.61 45.418 45.097 0 0 5.844-42.327 43.752-46.704 0 0-39.354-1.445-43.752-46.663z"></path><path fill="#4D4D4D" d="M85.015 264.678h-.07a10.291 10.291 0 0 1-10.13-9.015c-4.075-32.689-32.698-35.861-35.95-36.102-5.241-.422-9.357-4.719-9.508-9.96-.15-5.26 3.644-9.778 8.855-10.48 34.977-4.759 36.483-37.065 36.533-38.451.181-5.401 4.538-9.738 9.95-9.919 5.692.14 10.029 3.896 10.55 9.276 3.384 34.797 30.851 37.226 33.974 37.407 5.34.261 9.617 4.598 9.778 9.939.17 5.34-3.745 9.919-9.055 10.542-29.647 3.413-34.697 37.547-34.746 37.888-.703 5.08-5.05 8.875-10.18 8.875zM69.003 209.14c5.933 3.935 11.605 9.176 16.183 16.023 3.825-6.124 8.784-12.047 15.09-16.846a54.735 54.735 0 0 1-15.31-15.541c-3.926 6.003-9.146 11.726-15.963 16.364z"></path><path fill="#FFF" d="M271.687 10.28s-1.466 42.286-45.438 48.27c0 0 40.138 2.61 45.438 45.056 0 0 5.844-42.286 43.752-46.663 0 0-39.354-1.445-43.752-46.663z"></path><path fill="#4D4D4D" d="M271.687 113.887h-.07a10.291 10.291 0 0 1-10.13-9.016c-4.196-33.612-34.616-35.98-35.9-36.061a10.273 10.273 0 0 1-9.608-9.899 10.26 10.26 0 0 1 8.885-10.541c34.977-4.76 36.503-37.066 36.553-38.451.181-5.401 4.538-9.738 9.949-9.919 5.933 0 10.03 3.896 10.551 9.276 3.384 34.797 30.851 37.226 33.974 37.407 5.34.261 9.617 4.598 9.778 9.94.17 5.34-3.745 9.918-9.055 10.54-29.647 3.414-34.697 37.507-34.747 37.849-.703 5.08-5.05 8.875-10.18 8.875zm-16.023-55.498c5.934 3.935 11.606 9.176 16.194 16.003 3.825-6.124 8.784-12.028 15.09-16.827a55.25 55.25 0 0 1-15.311-15.54c-3.925 6.003-9.156 11.726-15.973 16.364z"></path><path fill="#FFF" d="M339.895 107.18s-1.466 42.326-45.418 48.31c0 0 40.117 2.61 45.418 45.056 0 0 5.843-42.326 43.771-46.703 0 0-39.394-1.445-43.771-46.663z"></path><path fill="#4D4D4D" d="M339.895 210.807h-.1c-5.15-.06-9.468-3.875-10.1-8.995-4.076-32.649-32.699-35.821-35.951-36.062-5.24-.422-9.357-4.719-9.507-9.959-.15-5.26 3.644-9.778 8.854-10.481 33.983-4.639 36.373-35.078 36.533-38.551.251-5.382 4.618-9.699 10.01-9.82 5.953.603 9.969 3.896 10.49 9.257 3.374 34.777 30.872 37.206 33.994 37.367 5.341.28 9.618 4.618 9.779 9.959.17 5.34-3.745 9.919-9.056 10.541-29.385 3.393-34.565 36.523-34.767 37.93-.742 5.059-5.08 8.814-10.18 8.814zm-16.013-55.478c5.923 3.936 11.595 9.156 16.184 16.003 3.814-6.144 8.784-12.047 15.099-16.846a55.287 55.287 0 0 1-15.32-15.541c-3.926 6.003-9.146 11.726-15.963 16.384z"></path></svg>